# xmcd
#
# Track frame offsets: 
#        150
#        13181
#        27060
#        35523
#        51010
#        64477
#        77117
#        91773
#        105625
#        120777
#        138698
#        152915
#        165707
#        176124
#        190078
#        202681
#        218823
#        232625
#        246397
#        252329
#        266823
#        281427
#        286488
#        300888
#
# Disc length: 4199 seconds
#
# Revision: 0
# Processed by: cddbd v1.5.2PL0 Copyright (c) Steve Scherf et al.
# Submitted via: ExactAudioCopy v0.90b4
#
DISCID=47106518
DTITLE=Various Artist - Broadcasting the Blues, volume 2
DYEAR=2005
DGENRE=Blues
TTITLE0=Barbecue Bob - Chocolate to the Bone (1928)
TTITLE1=Norfolk Jazz Quartette - Sad Blues (1923)
TTITLE2=Jimmy Strothers - Tenessee Dog (1936)
TTITLE3=McKinley Morganfield - Country Blues (1941)
TTITLE4=Bobbie Leecan's Need-More Band - Wasboard Cutout (1927)
TTITLE5=Washboard Sam - Flying Crow Blues (1941)
TTITLE6=Edith Wilson - Rules and Regulations (1922)
TTITLE7=Gladys Bentley - Ground Hog Blues (1928)
TTITLE8=Peg Leg Howell - Broke and Hungry Blues (1929)
TTITLE9=John Lee Hooker - Wednesday Evening She Left Me (On My Bended 
TTITLE9=Knees) (1950)
TTITLE10=Jesse James - Lonesome Day Blues (1944)
TTITLE11=Sonny Boy Williamson - Win the War Blues (1944)
TTITLE12=Sonny Terry and Brownie McGhee - Fox Hunt (1942)
TTITLE13=Big Bill Broonzy - Black, Brown and White (1951)
TTITLE14=Bertha 'Chippie' Hill - Pratt City Blues (1926)
TTITLE15=Leroy Carr - Blues Before Sunrise (1934)
TTITLE16=Tommu McClennan - Blues Trip me this Morning (1942)
TTITLE17=Henry Townsend - Poor Man Blues (1929)
TTITLE18=Henry Townsend Interview - It gives you relief...
TTITLE19=Son House - My Black Mama, part 1 (1930)
TTITLE20=Robert Petway - Cotton Pickin' Blues (1942)
TTITLE21=Wade Walton interview - When final settlement comes...
TTITLE22=Wesley Wallace - Number 29 (1929)
TTITLE23=Cow Cow Davenport - Jim Crow Blues (1927)
EXTD=
EXTT0=
EXTT1=
EXTT2=
EXTT3=
EXTT4=
EXTT5=
EXTT6=
EXTT7=
EXTT8=
EXTT9=
EXTT10=
EXTT11=
EXTT12=
EXTT13=
EXTT14=
EXTT15=
EXTT16=
EXTT17=
EXTT18=
EXTT19=
EXTT20=
EXTT21=
EXTT22=
EXTT23=
PLAYORDER=
